:SAMPLES-PER-SECOND 30
:FULLY-SPECIFIED
:DEGREES
1
root  9.99621 39.9928 7.25483 -160.394 -86.1413 158.964
RightUpLeg  -1.11116 -9.5054 -6.00113
RightLeg  5.89912 0.413523 0.373855
RightFoot  -3.19042 -0.211485 2.65309
RightToes  5.82063e-011 0 -3.6325e-017
Spine  6.50476 0.0647378 2.40358
Spine1  -1.81837 0.489319 -1.62793
HEad  -10.5498 -13.269 -2.06628
LeftShoulder1  0.279883 1.32204 -4.95158
LeftArm  -20.5371 8.47402 -21.9349
LeftForeArm  -0.733069 0.704231 2.58109
LeftHand  -0.0363316 6.34221 -0.199872
RightShoulder  0.187126 -1.93066 3.99196
RightArm  -10.6297 -3.61741 11.5191
RightForeArm  -2.20048 0.329818 -3.66644
RightHand  0.0986926 4.73282 0.834866
LeftUpLeg  -0.525901 8.12885 6.8656
LeftLeg  -0.821747 1.82026 0.416206
LeftFoot  3.73516 0.556055 -4.40245
LeftToes  1.68253e-010 -3.2327e-011 -2.69673e-012
2
root  10.0365 39.9905 7.26387 -159.67 -86.261 158.2
RightUpLeg  -1.13287 -9.58977 -6.06104
RightLeg  5.95872 0.387482 0.442468
RightFoot  -3.18412 -0.212369 2.6668
RightToes  5.82063e-011 0 -3.6325e-017
Spine  6.63641 0.0105066 2.27372
Spine1  -1.90671 0.408837 -1.49515
HEad  -10.3572 -13.185 -2.17161
LeftShoulder1  0.273254 1.40239 -5.14862
LeftArm  -20.5278 8.36494 -21.7462
LeftForeArm  -1.07464 0.758422 2.57061
LeftHand  -0.0403666 7.00059 -0.138477
RightShoulder  0.190994 -1.87359 3.77353
RightArm  -10.7801 -3.67109 11.6867
RightForeArm  -2.05936 0.308202 -3.73495
RightHand  0.106293 4.80224 0.910657
LeftUpLeg  -0.608097 8.11814 6.84039
LeftLeg  -0.754488 1.69508 0.410839
LeftFoot  3.74495 0.555736 -4.39749
LeftToes  1.68253e-010 -3.2327e-011 -2.69673e-012
3
root  10.0814 39.9834 7.27521 -160.251 -86.3657 158.771
RightUpLeg  -1.24646 -9.55942 -5.98207
RightLeg  6.10476 0.242799 0.435709
RightFoot  -3.15359 -0.207775 2.59553
RightToes  5.82063e-011 0 -3.6325e-017
Spine  6.56523 0.0299749 2.1216
Spine1  -1.72508 0.375733 -1.18904
HEad  -10.7896 -13.0412 -2.1164
LeftShoulder1  0.267694 1.49221 -5.48975
LeftArm  -20.6044 8.20069 -21.5181
LeftForeArm  -1.2046 0.685415 2.5868
LeftHand  -0.0408515 7.08187 -0.190104
RightShoulder  0.176937 -1.95881 3.48697
RightArm  -11.2002 -3.61327 11.8661
RightForeArm  -1.66391 0.308413 -3.90328
RightHand  0.097694 4.47163 0.860981
LeftUpLeg  -0.77334 8.18865 6.91716
LeftLeg  -0.559922 1.52201 0.373384
LeftFoot  3.60059 0.554771 -4.38244
LeftToes  1.68253e-010 -3.2327e-011 -2.69673e-012
4
root  10.1217 39.9807 7.28607 -159.909 -86.4458 158.394
RightUpLeg  -1.24489 -9.59458 -6.01363
RightLeg  6.05747 0.186891 0.476958
RightFoot  -3.12145 -0.203536 2.52975
RightToes  5.82063e-011 0 -3.6325e-017
Spine  6.64318 -0.0408733 1.89799
Spine1  -1.80755 0.266152 -1.02813
HEad  -11.1342 -12.5827 -1.99168
LeftShoulder1  0.262984 1.5409 -5.59222
LeftArm  -20.6841 8.45252 -21.3628
LeftForeArm  -0.78049 0.42375 2.63405
LeftHand  -0.0406557 6.30072 -0.6657
RightShoulder  0.186751 -1.83289 3.15174
RightArm  -11.5502 -3.83248 12.1802
RightForeArm  -1.41169 0.526173 -4.03397
RightHand  0.117915 5.07202 1.00229
LeftUpLeg  -0.872658 8.18028 6.89544
LeftLeg  -0.445878 1.46129 0.386347
LeftFoot  3.57928 0.553826 -4.36771
LeftToes  1.68253e-010 -3.2327e-011 -2.69673e-012
5
root  10.1646 39.9774 7.30323 -160.904 -86.4475 159.3
RightUpLeg  -1.25348 -9.52892 -5.96069
RightLeg  6.12528 0.14603 0.439408
RightFoot  -3.09162 -0.205783 2.56461
RightToes  5.82063e-011 0 -3.6325e-017
Spine  6.62405 -0.0143425 2.07335
Spine1  -1.6185 0.354111 -1.35078
HEad  -11.3428 -12.5517 -1.84292
LeftShoulder1  0.270617 1.44193 -5.28349
LeftArm  -20.7203 8.46613 -21.5104
LeftForeArm  -0.890243 0.392955 2.64221
LeftHand  -0.0406357 6.48193 -0.370149
RightShoulder  0.188525 -1.83501 3.29216
RightArm  -11.5697 -3.95182 12.0177
RightForeArm  -1.48794 0.575291 -4.0481
RightHand  0.110919 5.26412 0.894718
LeftUpLeg  -0.867774 8.25075 6.96678
LeftLeg  -0.374648 1.39795 0.350208
LeftFoot  3.46128 0.56001 -4.4641
LeftToes  1.68253e-010 -3.2327e-011 -2.69673e-012
6
root  10.2046 39.9717 7.32211 -160.748 -86.4371 159.085
RightUpLeg  -1.31349 -9.58475 -6.02355
RightLeg  6.23834 0.223135 0.477931
RightFoot  -3.0913 -0.203773 2.53067
RightToes  5.82063e-011 0 -3.6325e-017
Spine  6.71133 -0.0211556 1.98589
Spine1  -1.67522 0.347494 -1.35811
HEad  -11.2305 -12.3696 -2.05096
LeftShoulder1  0.270965 1.4352 -5.25485
LeftArm  -20.6374 8.53337 -21.4082
LeftForeArm  -1.00814 0.302029 2.58227
LeftHand  -0.0486043 6.89373 -0.500639
RightShoulder  0.20253 -1.71222 3.29566
RightArm  -11.5529 -4.19664 11.9186
RightForeArm  -1.34918 0.829584 -4.02855
RightHand  0.105632 4.94623 0.883217
LeftUpLeg  -0.916669 8.35747 7.00464
LeftLeg  -0.236742 1.25117 0.212346
LeftFoot  3.28101 0.56542 -4.54842
LeftToes  1.68253e-010 -3.2327e-011 -2.69673e-012
7
root  10.2397 39.9667 7.33143 -161.243 -86.4403 159.48
RightUpLeg  -1.30561 -9.46068 -5.94617
RightLeg  6.30037 0.122254 0.345577
RightFoot  -3.08524 -0.209823 2.61065
RightToes  5.82063e-011 0 -3.6325e-017
Spine  6.79285 0.015265 1.79847
Spine1  -1.58089 0.358451 -1.21525
HEad  -11.156 -12.0871 -2.40919
LeftShoulder1  0.253136 1.56268 -5.18826
LeftArm  -20.6312 8.31708 -21.4412
LeftForeArm  -0.613095 0.339018 2.56938
LeftHand  -0.0435829 6.62918 -0.967349
RightShoulder  0.177914 -1.92408 3.25727
RightArm  -11.4541 -3.91094 11.9141
RightForeArm  -1.3715 0.665023 -3.98604
RightHand  0.104267 4.94435 0.867952
LeftUpLeg  -0.892807 8.49205 7.10589
LeftLeg  -0.130658 1.10649 0.0923578
LeftFoot  3.13972 0.573039 -4.66719
LeftToes  1.68253e-010 -3.2327e-011 -2.69673e-012
8
root  10.2759 39.9631 7.34407 -162.235 -86.524 160.416
RightUpLeg  -1.29709 -9.41029 -5.86807
RightLeg  6.30179 0.0098069 0.326842
RightFoot  -3.02262 -0.212853 2.64048
RightToes  5.82063e-011 0 -3.6325e-017
Spine  6.98042 -0.0353281 1.8789
Spine1  -1.78803 0.334187 -1.35825
HEad  -10.9283 -12.2012 -2.36713
LeftShoulder1  0.266193 1.43337 -4.99262
LeftArm  -20.8125 8.49564 -21.526
LeftForeArm  -0.569909 0.254599 2.67784
LeftHand  -0.0484292 6.86796 -0.76309
RightShoulder  0.175415 -1.95653 3.34406
RightArm  -11.1103 -3.96908 11.7764
RightForeArm  -1.28975 0.785112 -3.86909
RightHand  0.110298 4.91118 0.941031
LeftUpLeg  -0.951365 8.66332 7.26963
LeftLeg  0.0251011 0.824592 -0.0479757
LeftFoot  2.94248 0.582389 -4.813
LeftToes  1.68253e-010 -3.2327e-011 -2.69673e-012
9
root  10.3106 39.9601 7.36224 -161.911 -86.5456 160.113
RightUpLeg  -1.4299 -9.45914 -5.90076
RightLeg  6.39295 -0.0265161 0.343436
RightFoot  -2.99129 -0.216772 2.68239
RightToes  5.82063e-011 0 -3.6325e-017
Spine  6.87034 -0.0807528 1.74182
Spine1  -1.633 0.266103 -1.24256
HEad  -10.8851 -12.2319 -2.40232
LeftShoulder1  0.270017 1.46243 -5.12196
LeftArm  -21.0004 8.36338 -21.4724
LeftForeArm  -0.84722 0.5037 2.82247
LeftHand  -0.0437441 6.65199 -0.448173
RightShoulder  0.17501 -1.96081 3.35087
RightArm  -11.1362 -3.95139 11.7357
RightForeArm  -1.25841 0.892425 -3.8537
RightHand  0.11983 4.84314 1.05774
LeftUpLeg  -1.1374 8.71042 7.27046
LeftLeg  0.266235 0.832925 -0.123083
LeftFoot  2.72233 0.594534 -5.00241
LeftToes  1.68253e-010 -3.2327e-011 -2.69673e-012
10
root  10.3416 39.9603 7.37849 -162.205 -86.5164 160.374
RightUpLeg  -1.41552 -9.46687 -5.91813
RightLeg  6.31189 0.0105929 0.354214
RightFoot  -2.89875 -0.213917 2.61908
RightToes  5.82063e-011 0 -3.6325e-017
Spine  6.85299 -0.119616 1.50428
Spine1  -1.5336 0.172957 -0.9687
HEad  -11.1356 -11.8953 -2.41326
LeftShoulder1  0.271276 1.56774 -5.33319
LeftArm  -20.6638 8.46416 -21.2469
LeftForeArm  -1.26212 0.399006 2.60918
LeftHand  -0.0431369 6.6517 -0.0895334
RightShoulder  0.184342 -1.87551 3.3217
RightArm  -11.1332 -3.95839 11.6751
RightForeArm  -1.66285 0.94983 -3.82001
RightHand  0.0855088 4.51764 0.713818
LeftUpLeg  -1.17293 8.67489 7.23448
LeftLeg  0.341906 0.937251 -0.0812827
LeftFoot  2.63663 0.591511 -4.95525
LeftToes  1.68253e-010 -3.2327e-011 -2.69673e-012
